<?xml version="1.0" standalone="no"?>
<!DOCTYPE svg PUBLIC "-//W3C//DTD SVG 20010904//EN"
 "http://www.w3.org/TR/2001/REC-SVG-20010904/DTD/svg10.dtd">
<svg version="1.0" xmlns="http://www.w3.org/2000/svg"
 width="800.000000pt" height="800.000000pt" viewBox="0 0 800.000000 800.000000"
 preserveAspectRatio="xMidYMid meet">
<metadata>
Created by potrace 1.14, written by Peter Selinger 2001-2017
</metadata>
<g transform="translate(0.000000,800.000000) scale(0.100000,-0.100000)"
fill="#000000" stroke="none">
<path d="M4039 7493 c0 -5 -2 -15 -4 -23 -1 -8 -5 -28 -8 -45 -3 -16 -13 -63
-22 -104 -9 -40 -18 -78 -20 -85 -1 -6 -4 -18 -7 -26 -3 -8 -20 -58 -38 -110
-78 -234 -162 -402 -461 -927 -11 -18 -28 -48 -38 -67 -11 -19 -31 -52 -44
-73 -13 -21 -27 -45 -31 -53 -3 -8 -21 -39 -39 -68 -399 -654 -487 -800 -560
-932 -99 -178 -126 -229 -181 -340 -113 -226 -279 -638 -300 -743 -2 -12 -11
-49 -20 -82 -8 -33 -18 -76 -21 -95 -4 -19 -11 -60 -16 -90 -24 -139 -32 -457
-15 -635 l7 -80 -24 41 c-110 186 -181 252 -175 163 1 -22 6 -43 10 -45 5 -3
6 -9 3 -14 -7 -11 34 -109 64 -150 31 -43 55 -65 103 -96 42 -27 45 -31 52
-67 4 -15 9 -39 12 -54 26 -127 99 -349 159 -478 55 -121 89 -190 94 -195 4
-3 15 -23 26 -45 11 -22 22 -42 25 -45 10 -9 44 -65 43 -70 -1 -3 6 -14 15
-24 16 -18 16 -19 -1 -13 -11 4 -17 1 -17 -7 0 -8 7 -16 15 -20 8 -3 15 -1 15
4 0 6 5 10 11 10 5 0 7 -5 4 -10 -3 -6 -2 -10 2 -10 5 0 16 -13 26 -29 9 -16
38 -55 63 -86 25 -31 44 -59 41 -61 -3 -3 -36 15 -74 40 -230 156 -278 204
-298 296 -17 80 -99 188 -146 191 -10 1 -26 2 -35 3 -9 0 -26 -11 -37 -27 -19
-25 -20 -32 -10 -93 7 -39 22 -82 38 -105 31 -47 104 -96 154 -105 54 -8 74
-21 143 -88 82 -79 104 -106 172 -207 31 -46 61 -89 66 -96 6 -7 10 -14 10
-17 0 -17 78 -131 99 -144 14 -8 38 -27 54 -41 17 -15 40 -25 62 -26 37 -2 65
-19 65 -41 0 -8 13 -33 30 -55 27 -39 28 -43 15 -69 -8 -15 -11 -31 -7 -35 4
-5 -1 -5 -10 -2 -10 4 -18 3 -18 -1 0 -4 -18 -15 -39 -24 -51 -22 -91 -63 -90
-91 0 -22 0 -22 9 -1 24 59 144 120 221 111 44 -5 54 -11 55 -35 1 -10 2 -24
3 -33 2 -25 54 -43 80 -29 19 9 22 7 32 -17 6 -15 8 -39 6 -53 -5 -24 -5 -24
10 -5 24 33 37 58 24 51 -18 -12 -12 5 15 41 28 37 59 43 69 14 8 -25 43 -48
89 -56 38 -8 42 -15 25 -46 -7 -15 -6 -27 5 -49 13 -27 13 -30 -2 -31 -9 -1
-37 -3 -62 -5 -140 -11 -179 -11 -184 0 -3 7 -5 6 -5 -3 -1 -11 -4 -11 -16 -1
-12 10 -19 9 -38 -3 -13 -8 -54 -18 -93 -21 -38 -3 -78 -7 -90 -10 -12 -2 -44
-7 -72 -11 -29 -3 -65 -10 -81 -15 -23 -6 -29 -5 -25 5 7 17 -10 27 -31 19
-13 -5 -14 -9 -3 -23 7 -9 3 -6 -10 7 l-22 23 20 29 c12 16 25 32 30 35 6 4
10 10 10 14 0 4 -19 -9 -42 -31 -30 -27 -50 -38 -73 -38 -46 0 -97 -65 -66
-84 5 -4 7 4 5 16 -4 23 -4 23 6 0 5 -13 7 -29 3 -34 -3 -7 -1 -8 5 -4 7 4 12
2 12 -3 0 -6 5 -11 11 -11 6 0 23 -9 39 -20 23 -16 91 -37 181 -55 57 -11 252
-37 264 -34 6 1 12 0 15 -1 9 -4 139 -14 331 -27 236 -16 1089 -7 1289 12 25
3 70 7 100 10 67 6 147 15 180 20 14 2 56 9 94 15 38 6 77 15 87 21 10 5 22 8
26 7 4 -1 25 6 46 15 51 22 50 49 -5 76 -42 19 -198 53 -308 67 -30 3 -64 8
-75 9 -11 1 -30 3 -43 4 -12 0 -21 4 -20 9 4 17 -15 62 -34 78 -13 12 -33 18
-61 17 -59 -3 -88 21 -93 77 -2 24 -6 55 -9 69 -2 14 4 39 15 58 l19 33 -24 0
c-14 0 -25 4 -25 9 0 11 39 2 59 -13 11 -8 13 -8 7 2 -5 8 0 12 16 13 57 2
138 52 138 85 0 12 -5 10 -20 -9 -38 -48 -134 -80 -183 -61 -11 4 -12 14 -5
47 5 23 9 48 10 55 1 8 13 19 27 25 14 7 33 18 41 26 27 26 76 41 106 32 51
-16 64 -23 64 -37 0 -8 6 -13 13 -11 6 1 11 -4 10 -10 -2 -7 0 -12 5 -11 4 0
27 -8 52 -20 25 -12 61 -22 80 -22 45 0 53 -7 71 -55 13 -36 18 -40 50 -40 21
-1 48 -11 69 -26 59 -44 67 -43 19 3 -25 23 -49 54 -52 68 -4 14 -22 42 -42
62 -19 20 -35 46 -35 58 0 13 -8 24 -20 27 -11 3 -21 9 -21 14 -1 5 -2 15 -3
22 -1 6 2 18 7 24 5 7 6 13 3 13 -4 0 3 14 15 31 l22 31 -22 -7 c-12 -4 -21
-2 -21 4 0 6 5 11 11 11 21 0 154 72 195 106 23 18 51 52 62 75 14 27 32 47
52 55 16 7 30 10 30 6 0 -22 -64 -113 -103 -147 -135 -119 -161 -140 -168
-138 -5 2 -9 0 -10 -5 0 -4 -3 -20 -5 -37 l-4 -30 20 25 c40 50 57 66 125 125
38 33 76 68 86 78 15 16 18 17 32 3 8 -9 17 -21 19 -28 8 -23 38 12 38 44 0
28 -3 30 -29 26 l-28 -4 17 39 c10 22 25 48 34 59 9 10 12 18 7 18 -5 0 0 17
10 37 23 45 25 108 4 117 -8 3 -15 10 -15 17 0 6 7 8 16 5 8 -3 12 -2 9 4 -3
6 -14 10 -23 10 -11 0 -1 15 30 45 27 25 55 45 63 45 8 0 15 4 15 8 0 5 14 8
32 7 23 -1 42 7 65 28 28 26 32 35 29 69 -3 23 -14 50 -27 64 -26 27 -82 48
-110 41 -16 -4 -18 -3 -9 8 10 11 6 13 -16 9 -16 -3 -34 -10 -41 -16 -19 -16
-16 6 7 52 17 34 23 38 49 34 30 -5 61 16 61 41 0 8 -7 34 -15 58 -15 43 -14
47 29 178 53 162 98 356 111 484 13 119 18 202 18 280 0 90 -9 252 -17 290 -2
11 -7 45 -12 75 -4 30 -8 57 -9 60 -1 3 -5 23 -9 45 -23 121 -104 390 -150
500 -7 17 -24 55 -36 85 -75 177 -216 449 -343 663 -43 71 -77 133 -77 138 0
5 -3 9 -7 9 -7 0 -45 56 -48 70 0 3 -12 23 -26 45 -59 91 -283 451 -374 600
-53 88 -106 172 -116 187 -10 15 -19 29 -19 32 0 3 -22 43 -49 88 -218 372
-428 825 -497 1077 -22 75 -45 190 -46 224 -1 24 -7 38 -9 20z m1540 -5420
c-3 -35 1 -50 21 -73 11 -13 20 -32 20 -44 0 -26 -36 -86 -52 -86 -6 0 -8 -3
-5 -7 4 -3 -6 -14 -23 -24 -16 -10 -42 -37 -57 -60 -20 -30 -29 -38 -31 -26
-2 9 -10 17 -17 17 -18 0 -38 -37 -31 -57 6 -13 9 -13 31 1 14 9 25 14 25 11
0 -10 -20 -45 -38 -65 -15 -19 -16 -18 -40 5 -14 14 -36 25 -50 25 -24 0 -24
0 12 44 20 24 36 49 36 54 0 6 4 12 8 14 12 4 92 125 92 137 0 6 5 11 10 11 6
0 10 7 10 15 0 13 4 14 20 5 48 -26 83 22 38 52 -21 14 -21 15 -2 41 23 31 26
33 23 10z m-271 -439 c0 -35 -5 -52 -22 -68 -12 -11 -15 -16 -6 -10 32 22 139
73 163 78 33 6 39 -1 24 -27 -51 -88 -147 -162 -259 -200 -25 -9 -52 21 -37
39 18 22 5 17 -51 -21 -87 -58 -91 -41 -10 41 85 87 88 91 149 162 24 29 45
52 46 52 1 0 2 -21 3 -46z m-2172 -490 c40 -31 39 -40 -2 -22 -29 13 -44 26
-44 41 0 12 10 8 46 -19z m1584 -28 c0 -5 -7 -2 -16 5 -15 12 -16 11 -10 -9 8
-25 -8 -31 -18 -6 -8 21 25 48 36 31 4 -7 8 -16 8 -21z m-72 -30 c3 -12 -1
-17 -10 -14 -7 3 -15 13 -16 22 -3 12 1 17 10 14 7 -3 15 -13 16 -22z m-1420
0 c7 -4 19 -5 27 -2 21 8 19 -7 -2 -20 -14 -9 -23 -6 -42 12 -23 22 -12 28 17
10z m116 -31 c17 -13 22 -13 42 0 21 14 22 13 20 -31 -1 -30 3 -48 13 -53 9
-6 10 -10 2 -15 -6 -4 -11 -2 -11 3 0 6 -7 11 -15 11 -8 0 -15 5 -15 10 0 6 5
10 10 10 6 0 10 9 10 20 0 18 -11 25 -34 21 -17 -4 -66 21 -60 30 7 12 16 11
38 -6z m-57 -1 c-3 -3 -12 -4 -19 -1 -8 3 -5 6 6 6 11 1 17 -2 13 -5z m39 -71
c-8 -9 -36 17 -36 33 0 10 7 7 21 -7 11 -11 18 -23 15 -26z m34 33 c0 -3 -4
-8 -10 -11 -5 -3 -10 -1 -10 4 0 6 5 11 10 11 6 0 10 -2 10 -4z m-197 -13
c-13 -2 -35 -2 -50 0 -16 2 -5 4 22 4 28 0 40 -2 28 -4z m645 -33 c11 0 24 5
27 10 3 6 11 10 18 10 8 0 8 -3 -1 -12 -27 -27 5 -75 39 -58 13 8 16 2 16 -36
0 -24 -4 -44 -9 -44 -4 0 -8 -4 -8 -10 0 -5 17 -8 37 -6 25 3 43 -2 57 -15 20
-19 33 -23 71 -20 20 2 20 1 1 -14 -11 -8 -15 -15 -9 -15 6 0 30 17 53 39 40
37 71 44 86 20 8 -14 42 -11 67 6 18 12 62 14 232 12 122 -1 215 -6 222 -12 6
-5 34 -26 62 -45 68 -48 71 -59 13 -55 -171 14 -343 19 -825 25 -19 0 6 20 26
21 21 0 21 1 -2 10 -19 8 -27 6 -39 -12 -12 -18 -22 -20 -71 -17 -65 5 -125
32 -139 62 l-11 21 0 -22 c-1 -12 -5 -24 -9 -27 -5 -3 -8 8 -7 25 1 24 -4 33
-28 45 -28 15 -31 14 -58 -5 -16 -12 -29 -19 -29 -17 0 8 44 50 81 78 20 15
44 43 53 63 l18 37 22 -21 c12 -12 32 -21 44 -21z m106 -20 c-6 -6 -10 -3 -10
10 0 13 4 16 10 10 7 -7 7 -13 0 -20z m-393 -68 c-7 -2 -18 1 -23 6 -8 8 -4 9
13 5 13 -4 18 -8 10 -11z m84 -124 c3 -7 -1 -4 -9 6 -9 11 -16 29 -15 40 1 17
2 16 9 -6 4 -14 11 -32 15 -40z m181 -9 c3 -5 -5 -8 -17 -6 -12 2 -40 1 -61
-3 -44 -8 -42 0 5 16 33 11 63 8 73 -7z m1084 -21 c0 -13 -23 -5 -28 10 -2 7
2 10 12 6 9 -3 16 -11 16 -16z"/>
<path d="M5199 1423 c-13 -16 -12 -17 4 -4 9 7 17 15 17 17 0 8 -8 3 -21 -13z"/>
<path d="M3737 956 c-23 -23 -14 -83 17 -111 27 -25 50 -25 60 1 3 8 15 14 26
14 28 0 25 24 -5 38 -14 6 -25 19 -25 28 0 10 -3 14 -7 11 -3 -4 -12 2 -20 13
-17 24 -27 25 -46 6z m53 -56 c-6 -11 -15 -20 -20 -20 -6 0 -2 9 7 20 10 11
19 20 21 20 1 0 -2 -9 -8 -20z"/>
<path d="M3707 904 c-4 -4 -7 -14 -7 -23 0 -11 3 -12 11 -4 6 6 10 16 7 23 -2
6 -7 8 -11 4z"/>
<path d="M3831 831 c-18 -12 -5 -31 20 -31 14 0 19 6 17 17 -4 20 -18 26 -37
14z"/>
<path d="M3806 803 c-12 -12 -6 -33 9 -33 8 0 15 6 15 14 0 17 -14 28 -24 19z"/>
<path d="M1857 2903 c-13 -12 -7 -25 30 -59 38 -36 123 -97 123 -89 0 3 -15
32 -32 66 -24 46 -41 66 -65 75 -36 16 -47 17 -56 7z"/>
<path d="M1475 2764 c-15 -15 -22 -30 -18 -41 5 -14 7 -13 14 5 9 25 44 45 67
39 13 -4 13 -5 -3 -6 -71 -4 -52 -101 30 -151 29 -18 53 -23 111 -24 40 -1 77
-5 81 -9 4 -5 -8 -8 -27 -8 -65 1 -90 -3 -90 -14 0 -11 82 -12 177 -1 20 2 34
-2 37 -10 3 -8 12 -14 21 -14 12 0 14 4 5 19 -17 33 -11 36 18 10 32 -30 82
-62 82 -54 0 9 117 -74 159 -113 132 -121 157 -137 50 -31 -58 57 -124 115
-148 129 -23 14 -79 52 -123 85 -45 33 -88 65 -97 70 -9 6 -23 18 -32 28 -9 9
-19 17 -22 17 -3 0 -26 14 -51 30 -24 17 -51 28 -59 24 -9 -3 -24 -1 -34 6
-16 10 -15 10 7 6 17 -4 14 -1 -10 10 -19 9 -54 18 -78 19 -34 3 -47 -1 -67
-21z m223 -41 c59 -39 152 -124 152 -141 0 -23 -18 -12 -51 32 -18 23 -57 60
-86 81 -29 21 -53 40 -53 42 0 7 12 2 38 -14z"/>
<path d="M5910 2655 c-7 -8 -9 -23 -5 -32 6 -16 8 -16 26 6 10 13 19 27 19 32
0 14 -26 10 -40 -6z"/>
<path d="M1600 2576 c0 -2 7 -9 15 -16 9 -7 15 -8 15 -2 0 5 -7 12 -15 16 -8
3 -15 4 -15 2z"/>
<path d="M6298 2451 c-12 -11 -19 -24 -15 -33 8 -23 54 -28 72 -8 16 17 21 49
8 51 -5 0 -16 2 -25 4 -10 2 -28 -5 -40 -14z"/>
<path d="M6190 2295 c-25 -7 -56 -16 -70 -21 -36 -11 -71 -40 -95 -80 -12 -20
-24 -34 -27 -32 -12 8 -38 -26 -33 -42 4 -12 -5 -27 -27 -45 l-33 -27 39 21
c28 16 37 18 33 7 -7 -17 17 -16 35 2 7 7 16 12 20 12 16 0 7 -20 -22 -50 -39
-40 -22 -38 28 3 50 42 104 66 110 49 2 -7 12 -12 23 -12 17 0 23 10 21 31 -1
3 16 13 36 22 47 22 66 37 80 64 28 51 2 109 -44 100 -13 -2 -21 0 -18 4 7 11
-1 11 -56 -6z m105 -99 c-9 -13 -23 -27 -31 -30 -9 -3 -3 7 13 24 34 36 39 38
18 6z m-241 -51 c3 -8 1 -15 -4 -15 -6 0 -10 7 -10 15 0 8 2 15 4 15 2 0 6 -7
10 -15z"/>
<path d="M5776 2154 c49 -31 72 -70 69 -114 -2 -22 0 -28 6 -19 13 21 11 45
-8 82 -18 34 -71 77 -95 77 -7 0 6 -12 28 -26z"/>
<path d="M6383 2128 c-26 -6 -50 -19 -63 -35 -22 -29 -18 -47 11 -38 45 15 71
14 99 0 28 -14 30 -14 45 8 31 48 -15 81 -92 65z"/>
<path d="M2420 2024 c0 -19 29 -82 41 -89 13 -9 1 56 -16 81 -18 28 -25 30
-25 8z"/>
<path d="M5910 1950 c-32 -32 -26 -48 20 -44 22 1 42 -1 45 -6 9 -15 35 1 35
20 0 41 -68 62 -100 30z"/>
<path d="M2266 1831 c-9 -14 9 -53 32 -74 23 -21 62 -15 62 8 0 18 -87 78 -94
66z"/>
<path d="M5632 1776 c-1 -19 -8 -52 -17 -73 -13 -31 -13 -35 -1 -23 17 18 36
104 26 120 -4 6 -7 -5 -8 -24z"/>
<path d="M5993 1791 c-37 -23 -60 -55 -73 -101 -13 -44 1 -70 19 -36 13 23 37
37 71 40 56 5 87 45 66 87 -15 31 -43 34 -83 10z"/>
<path d="M5695 1678 c-4 -13 -14 -30 -22 -40 -22 -24 1 -31 29 -8 26 20 32 60
11 67 -6 2 -14 -6 -18 -19z"/>
<path d="M5757 1594 c-14 -14 -7 -35 11 -32 9 2 17 10 17 17 0 16 -18 25 -28
15z"/>
<path d="M2615 1531 c-7 -22 13 -72 34 -85 12 -7 81 -17 81 -11 0 12 -39 75
-58 92 -30 28 -49 29 -57 4z"/>
<path d="M6015 1447 c-27 -12 -104 -51 -170 -87 l-120 -64 35 -8 c132 -30 157
-24 265 70 29 24 75 87 75 100 0 18 -29 14 -85 -11z"/>
<path d="M5345 1280 c-3 -5 1 -10 9 -10 9 0 16 5 16 10 0 6 -4 10 -9 10 -6 0
-13 -4 -16 -10z"/>
<path d="M5260 1259 c0 -5 5 -7 10 -4 6 3 10 8 10 11 0 2 -4 4 -10 4 -5 0 -10
-5 -10 -11z"/>
<path d="M4891 1189 c-14 -42 -15 -41 12 -37 26 4 35 39 14 57 -12 10 -17 6
-26 -20z"/>
<path d="M4970 1105 c-14 -14 -52 -40 -87 -57 -34 -16 -70 -40 -80 -52 -18
-21 -18 -21 2 -4 11 9 36 23 55 32 61 28 100 53 121 80 26 33 20 34 -11 1z"/>
<path d="M3051 1041 c-13 -15 -37 -36 -54 -46 -39 -23 -78 -62 -101 -100 -12
-21 -5 -16 22 15 21 25 62 61 90 80 28 19 55 45 61 57 14 30 11 29 -18 -6z"/>
<path d="M5020 1012 c0 -11 9 -27 20 -37 19 -18 20 -17 20 3 0 18 -23 52 -36
52 -2 0 -4 -8 -4 -18z"/>
<path d="M3010 892 c-33 -11 -38 -37 -10 -52 15 -8 21 -7 28 7 12 24 1 51 -18
45z"/>
<path d="M4815 880 c3 -5 10 -10 16 -10 5 0 9 5 9 10 0 6 -7 10 -16 10 -8 0
-12 -4 -9 -10z"/>
<path d="M2634 749 c-7 -13 21 -39 42 -39 6 0 15 7 18 16 9 23 8 26 -6 21 -7
-2 -21 0 -30 4 -11 6 -19 5 -24 -2z"/>
<path d="M2525 650 c-3 -5 1 -10 9 -10 9 0 16 5 16 10 0 6 -4 10 -9 10 -6 0
-13 -4 -16 -10z"/>
<path d="M2614 648 c6 -40 37 -51 34 -13 -2 16 -8 25 -19 25 -10 0 -16 -6 -15
-12z"/>
</g>
</svg>
